<svg id="like_icon_hov" xmlns="http://www.w3.org/2000/svg" xmlns:xlink="http://www.w3.org/1999/xlink" width="54" height="84" viewBox="0 0 54 84">
  <defs>
    <linearGradient id="linear-gradient" x1="0.2" x2="0.754" y2="0.87" gradientUnits="objectBoundingBox">
      <stop offset="0" stop-color="#f99f00"/>
      <stop offset="1" stop-color="#db3069"/>
    </linearGradient>
  </defs>
  <g id="like_icon_hov-2" data-name="like_icon_hov">
    <circle id="Oval" cx="27" cy="27" r="27" transform="translate(0 0)" fill="url(#linear-gradient)"/>
    <path id="Path" d="M22.984,23.577a.745.745,0,0,1-.694.472H19.357a15.282,15.282,0,0,1-4.964,3.819.8.8,0,0,1-.252.067c-.544.043-.943.065-1.216.065a10.168,10.168,0,0,1-2.578-.385l-.606.306A.744.744,0,0,1,9.4,28h-.87c-3.013,0-3.646-1.462-3.646-2.688,0-.037,0-.075,0-.119a2.454,2.454,0,0,1-2.4-2.6c0-.106.006-.235.019-.392a2.785,2.785,0,0,1-1.259-.837A2.441,2.441,0,0,1,.72,19.75a2.949,2.949,0,0,1,.415-1.439A4.356,4.356,0,0,1,0,15.378a3.667,3.667,0,0,1,2.172-3.251,11.309,11.309,0,0,1,5.481-1.161h.176c-.2-1.169.658-1.075.092-2.181l-.35-.6a8.488,8.488,0,0,1-1.218-3.6c0-2.4,1.277-3.909,3.8-4.5l.238-.057a.755.755,0,0,1,.57.089.742.742,0,0,1,.333.468L12.31,5.067l4.1,4.346c.288.333-.52-.357.275.7l.627.824a8.756,8.756,0,0,0,1.358,1.6,2.038,2.038,0,0,0,1.147.245h2.374a.741.741,0,0,1,.679.44A12.631,12.631,0,0,1,24,18.4,14.184,14.184,0,0,1,22.984,23.577Z" transform="translate(15 12)" fill="#fff"/>
    <text id="LIKE" transform="translate(27 80)" fill="#999" font-size="15" font-family="SegoeUI, Segoe UI"><tspan x="-13.671" y="0">LIKE</tspan></text>
  </g>
</svg>
