<svg xmlns="http://www.w3.org/2000/svg" xmlns:xlink="http://www.w3.org/1999/xlink" width="102" height="107" viewBox="0 0 102 107">
  <defs>
    <clipPath id="clip-path">
      <rect width="102" height="107" fill="none"/>
    </clipPath>
    <linearGradient id="linear-gradient" x1="0.232" y1="0.573" x2="0.518" y2="0.433" gradientUnits="objectBoundingBox">
      <stop offset="0" stop-color="#fff"/>
      <stop offset="1" stop-color="#ffeded"/>
    </linearGradient>
  </defs>
  <g id="Repeat_Grid_1" data-name="Repeat Grid 1" clip-path="url(#clip-path)">
    <g id="Group_2" data-name="Group 2" transform="translate(-139 -247)">
      <g id="Group_1" data-name="Group 1">
        <g id="logo" transform="translate(139 247)">
          <path id="Fill_1" data-name="Fill 1" d="M61.031,40.381H41.061a6.922,6.922,0,0,1-5.627-2.893L10.357,2.462A5.712,5.712,0,0,0,0,5.79v99.284A1.926,1.926,0,0,0,1.926,107H14.952a5.645,5.645,0,0,0,5.643-5.646V77.789a25.289,25.289,0,0,1,23.054,14.9l.261.58a7.9,7.9,0,0,0,7.2,4.653h.219a7.218,7.218,0,0,0,6.579-4.252l.442-.981A25.289,25.289,0,0,1,81.4,77.789v23.565A5.644,5.644,0,0,0,87.048,107h13.026A1.926,1.926,0,0,0,102,105.074V5.538c0-5.5-7.313-7.724-10.915-2.832l-24.5,34.888a6.922,6.922,0,0,1-5.551,2.788" transform="translate(0 0)" fill="url(#linear-gradient)"/>
          <path id="Fill_4" data-name="Fill 4" d="M69,5.517v99.558A1.928,1.928,0,0,1,67.068,107H54.188a5.772,5.772,0,0,1-5.777-5.767V77.881h-.055V77.79A25.391,25.391,0,0,0,27.937,88.1c-.052.073-.1.142-.158.215a25.2,25.2,0,0,0-2.538,4.255c-.221.466-.43.941-.619,1.426A7.725,7.725,0,0,1,18.671,97.9h-.009c-.149.009-.3.015-.449.015h-.218a7.907,7.907,0,0,1-6.753-3.781l0-.005q-.355-.917-.779-1.792A25.574,25.574,0,0,0,6.02,85.91c-.006,0-.009-.009-.012-.012-.036-.037-.07-.076-.106-.112-.015-.018-.033-.033-.049-.051a25.4,25.4,0,0,0-4.015-3.444,4.027,4.027,0,0,1,.1-6.824c8.121-4.909,15.888-15.748,15.888-15.748L31.521,40.381l1.3-1.843h0a5.484,5.484,0,0,0,.867-1.217h0l.74-1.05L48.411,16.534,58.833,1.819h0C62.614-1.871,68.985.4,69,5.517" transform="translate(33)" fill="#fff"/>
        </g>
      </g>
    </g>
  </g>
</svg>
