<svg id="MOVIES-def" xmlns="http://www.w3.org/2000/svg" width="125" height="50" viewBox="0 0 125 50">
  <g id="MOVIES-def-2" data-name="MOVIES-def">
    <rect id="tabBarBg" width="125" height="49" fill="#010202" opacity="0"/>
    <path id="Fill_1" data-name="Fill 1" d="M14.959,9.057H10.064a1.75,1.75,0,0,1-1.379-.649L2.538.552A1.424,1.424,0,0,0,0,1.3V23.568A.453.453,0,0,0,.472,24H3.665a1.329,1.329,0,0,0,1.383-1.266V17.448A6.252,6.252,0,0,1,10.7,20.79l.064.13a1.953,1.953,0,0,0,1.765,1.044h.054a1.784,1.784,0,0,0,1.613-.954l.108-.22a6.252,6.252,0,0,1,5.65-3.342v5.286A1.329,1.329,0,0,0,21.335,24h3.193A.453.453,0,0,0,25,23.568V1.242C25,.008,23.207-.49,22.325.607L16.319,8.432a1.753,1.753,0,0,1-1.361.625" transform="translate(50 9)" fill="none" stroke="#999" stroke-miterlimit="10" stroke-width="2"/>
    <rect id="Rectangle" width="26" height="26" transform="translate(50 8)" fill="#fff" opacity="0"/>
    <text id="MOIVES" transform="translate(62.5 47)" fill="#999" font-size="10" font-family="SegoeUI, Segoe UI"><tspan x="-17.881" y="0">MOIVES</tspan></text>
  </g>
</svg>
