<svg xmlns="http://www.w3.org/2000/svg" xmlns:xlink="http://www.w3.org/1999/xlink" width="54" height="37" viewBox="0 0 54 37">
  <defs>
    <filter id="Knob" x="1.5" y="0.5" width="34" height="34" filterUnits="userSpaceOnUse">
      <feOffset dy="2" input="SourceAlpha"/>
      <feGaussianBlur stdDeviation="1" result="blur"/>
      <feFlood flood-opacity="0.102"/>
      <feComposite operator="in" in2="blur"/>
    </filter>
    <filter id="Knob-2" x="3" y="1.5" width="31" height="32.5" filterUnits="userSpaceOnUse">
      <feOffset dy="3" input="SourceAlpha"/>
      <feGaussianBlur stdDeviation="0.5" result="blur-2"/>
      <feFlood flood-opacity="0.051"/>
      <feComposite operator="in" in2="blur-2"/>
    </filter>
    <filter id="Knob-3" x="0" y="0" width="37" height="37" filterUnits="userSpaceOnUse">
      <feOffset dy="3" input="SourceAlpha"/>
      <feGaussianBlur stdDeviation="1.5" result="blur-3"/>
      <feFlood flood-opacity="0.051"/>
      <feComposite operator="in" in2="blur-3"/>
      <feComposite in="SourceGraphic"/>
    </filter>
  </defs>
  <g id="Off_Switch" data-name="Off Switch" transform="translate(3)">
    <g id="Float">
      <g id="White_Background" data-name="White Background" fill="#fff" stroke="rgba(0,0,0,0.1)" stroke-miterlimit="10" stroke-width="1.5">
        <rect width="51" height="31" rx="15.5" stroke="none"/>
        <rect x="0.75" y="0.75" width="49.5" height="29.5" rx="14.75" fill="none"/>
      </g>
      <g id="Knob-4" data-name="Knob">
        <g transform="matrix(1, 0, 0, 1, -3, 0)" filter="url(#Knob)">
          <circle id="Knob-5" data-name="Knob" cx="14" cy="14" r="14" transform="translate(4.5 1.5)" fill="#fff"/>
        </g>
        <g transform="matrix(1, 0, 0, 1, -3, 0)" filter="url(#Knob-2)">
          <circle id="Knob-6" data-name="Knob" cx="14" cy="14" r="14" transform="translate(4.5 1.5)" fill="#fff"/>
        </g>
        <g transform="matrix(1, 0, 0, 1, -3, 0)" filter="url(#Knob-3)">
          <circle id="Knob-7" data-name="Knob" cx="14" cy="14" r="14" transform="translate(4.5 1.5)" fill="#fff"/>
        </g>
        <g id="Knob-8" data-name="Knob" transform="translate(1.5 1.5)" fill="none" stroke="rgba(0,0,0,0.1)" stroke-miterlimit="10" stroke-width="0.5">
          <circle cx="14" cy="14" r="14" stroke="none"/>
          <circle cx="14" cy="14" r="14.25" fill="none"/>
        </g>
      </g>
    </g>
  </g>
</svg>
