<svg id="Setting_icon" xmlns="http://www.w3.org/2000/svg" width="30" height="30" viewBox="0 0 30 30">
  <g id="Setting_icon-2" data-name="Setting_icon">
    <path id="Shape" d="M12.058,20H7.946a.5.5,0,0,1-.5-.419L7.052,16.93a7.6,7.6,0,0,1-1.737-.98l-2.56,1a.537.537,0,0,1-.179.03.509.509,0,0,1-.448-.25L.071,13.27a.5.5,0,0,1,.123-.64l2.169-1.65A7.773,7.773,0,0,1,2.292,10a7.769,7.769,0,0,1,.071-.98L.194,7.37a.482.482,0,0,1-.123-.64L2.128,3.27a.5.5,0,0,1,.44-.254.525.525,0,0,1,.187.035l2.56,1a7.915,7.915,0,0,1,1.737-.98L7.442.42a.5.5,0,0,1,.5-.42h4.112a.5.5,0,0,1,.5.42l.391,2.65a7.631,7.631,0,0,1,1.737.98l2.56-1a.534.534,0,0,1,.179-.03.511.511,0,0,1,.448.25L19.933,6.73a.5.5,0,0,1-.123.64L17.641,9.02a7.8,7.8,0,0,1,.072.98,7.765,7.765,0,0,1-.072.98l2.169,1.65a.5.5,0,0,1,.123.64L17.878,16.73a.506.506,0,0,1-.44.254.522.522,0,0,1-.187-.035l-2.561-1a7.876,7.876,0,0,1-1.737.98l-.391,2.651A.5.5,0,0,1,12.058,20ZM10,6.5A3.554,3.554,0,0,0,6.4,10a3.6,3.6,0,0,0,7.2,0A3.554,3.554,0,0,0,10,6.5Z" transform="translate(5 5)" fill="none" stroke="#222" stroke-miterlimit="10" stroke-width="2"/>
    <rect id="Rectangle_10" data-name="Rectangle 10" width="30" height="30" fill="#fff" opacity="0"/>
  </g>
</svg>
