<svg id="TV_SHOW-hov" data-name="TV SHOW-hov" xmlns="http://www.w3.org/2000/svg" xmlns:xlink="http://www.w3.org/1999/xlink" width="125" height="50" viewBox="0 0 125 50">
  <defs>
    <linearGradient id="linear-gradient" x1="0.2" x2="0.754" y2="0.87" gradientUnits="objectBoundingBox">
      <stop offset="0" stop-color="#f99f00"/>
      <stop offset="1" stop-color="#db3069"/>
    </linearGradient>
  </defs>
  <g id="TV_SHOW-hov-2" data-name="TV SHOW-hov">
    <rect id="tabBarBg" width="125" height="49" fill="#010202" opacity="0"/>
    <path id="Combined_Shape" data-name="Combined Shape" d="M4,22V20H20v2ZM2,18a2,2,0,0,1-2-2V2A2,2,0,0,1,2,0H22a2,2,0,0,1,2,2V16a2,2,0,0,1-2,2ZM3,7H5V3H3ZM6,5H8V3H6Z" transform="translate(51 10)" fill="url(#linear-gradient)"/>
    <rect id="Rectangle" width="26" height="26" transform="translate(50 8)" fill="#fff" opacity="0"/>
    <text id="TV" transform="translate(62.5 47)" fill="#e24951" font-size="10" font-family="SegoeUI, Segoe UI"><tspan x="-7.2" y="0">TV </tspan></text>
  </g>
</svg>
